<svg xmlns="http://www.w3.org/2000/svg" id="_x31_" viewBox="0 0 817.2 350"><style>.st0{fill-rule:evenodd;clip-rule:evenodd;} .st1{fill-rule:evenodd;clip-rule:evenodd;fill:#F4F4F4;}</style><path d="M107.9 203.5l28 70.1-55.8-.1 27.8-70zM.8 341.4l-.8 1.3h52.3c.9-1.2 11.5-28.5 13.9-34.6.4-1.1.4-1.6 1.4-2.1h81.5l14.5 36.7H216c-2.1-5.1-16.7-36.8-16.8-38.8-.9-.9-1.3-2.3-1.9-3.7L186 274.8c-13-28.9-25.5-58.4-38.5-87.2l-9.3-21.3c-1.7-1.7 1.3-1.6-5.9-1.6H78.9c-1.2 1.8-18 40.6-19.6 44.1-3.4 7.3-6.4 14.8-9.8 22.1l-19.5 44c-7.9 18.2-16.8 37.2-24.4 55.3-1.4 3.2-4 8-4.8 11.2zM467.6 273.6c.5-2.5 27.4-69.4 28-70l27.7 70h-55.7zm-10.8-88.3l-1.6 3.8-3.6 8-1.6 4-62.6 141.7h52.4l14.6-36.7h82.1l14.5 36.7h52.4l-4.3-9.9-60.6-137c-4.9-10.3-9.4-21.2-13.9-31.4-4.2 1.3-50.5-.6-58.5.3l-9.3 20.5zM302.3 150.8c-1.4 2.4-4.1 3.7-5.5 6.1 2.1 3 18.9 18.1 20.2 20.6.8.3 1.1 1 2.1 1.6l1.9-1.5c0-.1.1-.1.2-.1.9-1.8 7.2-7.5 9.1-9.4 1.9-1.9 7.6-8.2 9.5-9.1.4-1 1.6-1.9 2.4-2.7.9-.9 1.7-1.7 2.6-2.5.5 5.3.1 12.4.1 18v90c0 10.6.8 24.4-1.5 34.1-6.1 25-29.5 21.3-50.7 21.3-13.6 0-20.4-1.6-26.4-9.8-7.4-10.1-4.2-17.6-5.4-30.3h-48.5c-.7 6.6.1 16.1.6 22.7 1.8 8.2 2.5 12.6 6.1 19.6 3 5.7 7.7 11.3 11.9 14.5 23.5 17.9 58.9 16.6 89.2 15.7 15.8-.4 31.3-2.7 43-9.8 25.9-15.7 23.4-45 23.4-81.2V180c0-8.4-.4-18 .1-26.3l25.6 25.4 22.3-22.1c-.1-.9.2-.2-.2-.7l-68.6-68.1c-1.7.8-2.8 2.5-4.2 3.9l-4 4-39.6 39.3c-2.7 2.7-5.2 5.1-7.8 7.8-1.6 1.6-6.5 6.9-7.9 7.6z" class="st0"/><path d="M239.6 9.5c-1.4.9-2.7 1.7-4.1 2.4l-8.6 8c-.5 1.4-.7 1.2-1.6 2.5-.6 1-.6 1.4-1.7 2.1-.2 1.5-.8 1.8-1.7 3.7-1.8 3.9-3.5 8.8-4.3 13-1.4 7-1.8 13.4-2.1 20.8l-.1 133.9c-1.4-.6-9.9-9.5-11.6-11.2-2-2-10.2-10.5-11.6-11.4l-.1-.1c-.1 0 .1-.1 0-.1s-.1-.1-.1-.1c-.1 0-.1-.4-.2-.4 0 .1-.2-.2-.2-.1 0 0-.2-.4-.2-.3l-1.6-1.2c-1.4.9-.6.4-1.4 1-.4.4-.3.4-.9.8-2.3 2.1-8.7 9.3-10.8 10.4-.5 1.3-7.9 8.2-9.5 9.8 2 2.5 5.8 5.9 8.3 8.3l25.6 25.4c5.7 5.7 11.2 11.1 16.9 16.8 2.9 2.9 5.6 5.5 8.5 8.5.8.8 7.5 7.8 8.6 8.3.5.6.1.4 1.3 1.2.5.3.6.6.8.1l1-1.5c.5-.4.2-.3.6-.8l1.6-1.5 2.1-2.1 58.6-58.3c1.4-1.4 3.5-2.9 4.2-4.7l-8.9-8.7c-2.3-2.4-4.4-4.4-6.7-6.7-1.6-1.6-5.3-5.8-7.1-6.6l-25.2 25.2c-.6-3.1-.1-99-.1-107.2 0-10.2-.9-25.3 1.5-34.6 6.2-23.9 25-21.4 50.4-21.4 6.3 0 10.6-.3 16.2 1.8 16.8 6.3 16 23.5 15.7 38.3h48.7c.1-10.7.3-21.4-2.6-31.6-.5-1.9-2.8-7.5-2.8-8.4-1-.9-1.8-3.1-2.9-4.9-2.1-3.2-6.1-8.4-8.8-10.6-.9-.8-1.5-.8-2-1.9-1.2-.4-1.4-.7-2.7-1.7-.1 0-.1-.1-.2-.1l-.5-.4c-2.6-1.2-5.2-3.1-8.2-4.4C334.1-2.3 305 .3 278.3.2c-1.8.4-7.8.5-10.7.9-3.6.4-7 1-10.4 1.8-6.2 1.4-12.7 3.6-17.6 6.6zM639.2 194.1c.9.5 1 .8 1.6 1.6l4.3 5.4c1.9 2.5 3.9 4.7 5.8 7.1l17.2 21.3c1.9 2.4 16.3 19.9 17.1 21.5l-5.5 6.8c-1.1 1.3-4.1 5.5-5.4 6.2-.5 1.4-.1.4-1 1.6-.5.6-.6.8-1.1 1.3-.9 1.1-1.1 1.8-2.3 2.3-.4 1.4-4.9 6.4-6.4 8.1l-26 31.5c-.5.6-.6.9-1.1 1.4l-1 .8c-.4 1.1-.2.5-.7 1.2-.7.9-.1.2-.5.7-.3.3 0 0-.5.7-.3.4-.2.1-.6.7-.4.5.2-.3-1.1 1.6-1.3.8-6.5 7.5-8.1 9.4L620 330c-.9 1.1-3.1 3.6-3.8 4.7l-6.5 7.9 60.2.1c1.7-1.7 4.5-5.9 5.9-8 .9-1.3 5.1-7.3 5.9-7.7.4-1.2 1.7-2.8 2.5-3.9.9-1.2 1.7-2.3 2.5-3.5 1.5-2 8.5-12.2 9.5-12.7.6-1.5 4.6-6.9 5.5-7.4.2-1.2 4.8-6.9 5.8-8.3 1-1.4 5-7.4 6.3-8.3 3.7 5.6 12.3 16.9 16.8 23.3 2.8 4 5.8 7.7 8.5 11.7l8.2 11.7c.1.1.2.1.2.2 0 0 .2.1.2.2l1.8 2.7c1.3.6 3.8 5.7 5.3 6.5l.2.6c.1 0 .5.8.6.8.7.9.6.7.6.7l.8 1.6h60.3c.1-.4-.1-.2-.2-1-1.2-.7-2.7-2.8-3.7-4.1-1.1-1.4-2.8-3-3.4-4.4-1.1-.6-2.2-2.2-3.1-3.3-1.1-1.4-2-2.4-3.1-3.8-1-1.3-1.9-2.3-3-3.6-.8-1-2.2-2.9-3.1-3.7l-11.4-14c-1.5-1.9-10.6-12.6-11-13.7l-.5-.3c-1-.9-1.6-1.6-2.1-2.7-1.3-.7-10.8-12.8-12.6-14.9l-11-13.3c-.7-.8-.7-1.2-1.4-1.3-.8-.8 0 0-.7-.6-.4-.5.1-.1-.7-.8l-.3-.6c-.3-.4.1.1-.5-.6-.9-1.1-1.2-1.3-1.1-1.4-.3-.9-2-2.7-2.7-3.7.7-1.6 21.3-26.6 23.6-29.5l9.3-11.5c.9-1.1 3.8-5.1 4.8-5.5l1.1-1.8 30.5-38-58.4-.3-9.8 14.2c-9.2 12.3-20.3 29.5-29.3 41.1-1.7-1.9-7.8-10.8-9.8-13.6l-29.4-41.7-56 .2H616c.3 1.2 15.2 19 17.4 21.9 1.2 1.6 5.2 6 5.8 7.5z" class="st0"/><path d="M779.4 204.5c.2.2.1.2.4.3l.2.1c.1 0 .2 0 .2.1l1.6-.3-.3-1c-.4-.9-.8-.8-1-1l-1.1 1.8z" class="st1"/></svg>