<?xml version="1.0" encoding="utf-8"?>
<!-- Generator: Adobe Illustrator 19.2.1, SVG Export Plug-In . SVG Version: 6.00 Build 0)  -->
<svg version="1.1" id="Layer_1" xmlns="http://www.w3.org/2000/svg" xmlns:xlink="http://www.w3.org/1999/xlink" x="0px" y="0px"
	 viewBox="0 0 469.3 512" style="enable-background:new 0 0 469.3 512;" xml:space="preserve">
<g>
	<g>
		<path d="M467.2,4.3c-2.1-2.1-4.3-4.3-8.5-4.3h-448C8.5,0,4.3,2.1,2.1,4.3S0,8.5,0,12.8l42.7,426.7c0,4.3,4.3,8.5,6.4,8.5l192,64
			c2.1,0,2.1,0,4.3,0c2.1,0,2.1,0,4.3,0l170.7-64c4.3-2.1,6.4-4.3,6.4-8.5l42.7-426.7C469.3,10.7,469.3,6.4,467.2,4.3z M234.7,386.1
			c0,2.1-2.1,6.4-4.3,8.5s-4.4,2.4-6.5,2.4l-2-0.3l-74.7-21.3c-4.3-2.1-6.4-4.3-8.5-8.5L128,313.6c-2.1-6.4,2.1-10.7,8.5-12.8
			c6.4-2.1,10.7,2.1,12.8,8.5l8.5,46.9l55.5,14.9V130.1H96c-6.4,0-10.7-4.3-10.7-10.7c0-6.4,4.3-10.7,10.7-10.7h128
			c6.4,0,10.7,4.3,10.7,10.7V386.1z M384,121.6l-10.7,42.7c-2.1,6.4-6.5,9.6-12.8,8.5c-6.7-1.1-9.2-6.4-8.5-12.8
			c0.8-7.6,6.4-29.9,6.4-29.9h-83.2v106.7h74.7c2.1,0,6.4,2.1,8.5,4.3c2.1,2.1,2.1,6.4,2.1,8.5l-21.3,117.3c0,4.3-4.3,6.4-6.4,8.5
			l-64,21.3c-2.1,0-9.9,3-14.9-6.4c-2.1-6.4,2.1-10.7,6.4-12.8l57.6-19.2l17.1-98.1h-72.5c-6.4,0-10.7-4.3-10.7-10.7v-128
			c0-6.4,4.3-10.7,10.7-10.7h106.7c4.3,0,7.2,0.9,10,2.1C385,115.4,384,119.5,384,121.6z"/>
	</g>
</g>
</svg>
