<?xml version="1.0" encoding="utf-8"?>
<!-- Generator: Adobe Illustrator 19.2.1, SVG Export Plug-In . SVG Version: 6.00 Build 0)  -->
<svg version="1.1" id="_x31_" xmlns="http://www.w3.org/2000/svg" xmlns:xlink="http://www.w3.org/1999/xlink" x="0px" y="0px"
	 viewBox="0 0 582.4 658.5" style="enable-background:new 0 0 582.4 658.5;" xml:space="preserve">
<style type="text/css">
	.st0{fill-rule:evenodd;clip-rule:evenodd;}
	.st1{fill-rule:evenodd;clip-rule:evenodd;fill:#FFFFFF;}
</style>
<g>
	<path class="st0" d="M211.7,127.5l56.5-0.2L267.9,515L99.3,467.2l-0.1-67.3l112.6,31L211.7,127.5L211.7,127.5z M0,7.6
		C0.2,11.3,0,4.5,0,7.6c1.2,3-0.4-2.4,1,4.8c0.2,1.2,0.5,5.3,0.6,6.7c-0.3,6,1.2,13.5,2.1,19.4L8.6,93c1.3,11.4,2.8,22.8,3.2,35.7
		l37.3,409.6c0.2,3.2-0.2,6.7,0.1,10c0.6,5.5,1.1,1.9,1.6,8.6c0.9,12.9,0.8,24.6,3.4,35.6c31.3,7.3,85.2,24.4,118.8,33.5
		c9.6,2.6,112.8,33,119.7,32.5l119-33.5c20.7-5.6,38.9-10.7,59.6-16.6c12-3.4,50.3-13.3,58.6-17.6l12.9-148c2-11.2,4.8-72,7.8-92.1
		c0.9-5.9,0.6-11.7,1.5-18.9l10-110.2c0.2-21.4,11-102.6,11.9-128.6L582.4,0H0V7.6z"/>
	<path class="st1" d="M509.8,128l-183.6,0l-0.3,251.1l114.6-20c-4.7,65.7-2.5,57.9-17.2,61.6l-41.5,11c-17.8,5-38.6,11.1-56.2,14.8
		l0.2,67.8c17.9-2.8,107.4-27.8,138.3-35.9l18.5-5.8l14.6-187.7l-115.1,13.8L382,195.6l122.7-0.4L509.8,128z"/>
	<polygon class="st1" points="211.8,430.9 99.2,399.9 99.3,467.2 267.9,515 268.2,127.3 211.7,127.5 	"/>
</g>
</svg>
