<?xml version="1.0" encoding="utf-8"?>
<!-- Generator: Adobe Illustrator 19.2.1, SVG Export Plug-In . SVG Version: 6.00 Build 0)  -->
<svg version="1.1" id="Capa_1" xmlns="http://www.w3.org/2000/svg" xmlns:xlink="http://www.w3.org/1999/xlink" x="0px" y="0px"
	 viewBox="0 0 434.2 294.4" style="enable-background:new 0 0 434.2 294.4;" xml:space="preserve">
<path d="M434.2,253.4v24.5c0,9.1-9.8,16.4-21.9,16.4H21.9C9.8,294.4,0,287,0,277.9v-24.5h16.1H157c23.5,0,14,0,29,0h63
	c15.1,0,12,0,28.3,0h140.8H434.2L434.2,253.4z"/>
<path d="M418.1,21.9v205.9c0,14.1-11.4,25.5-25.5,25.5H277.3H157H36.1c-11,0-19.9-8.9-19.9-19.9V21.9C16.1,9.8,26,0,38.1,0h358.1
	C408.3,0,418.1,9.8,418.1,21.9z M385.3,217.8V34.3H270H48.9v183.5h160.9H385.3z"/>
</svg>
