<?xml version="1.0" encoding="utf-8"?>
<!-- Generator: Adobe Illustrator 19.2.1, SVG Export Plug-In . SVG Version: 6.00 Build 0)  -->
<svg version="1.1" id="Capa_1" xmlns="http://www.w3.org/2000/svg" xmlns:xlink="http://www.w3.org/1999/xlink" x="0px" y="0px"
	 viewBox="0 0 480.1 451.8" style="enable-background:new 0 0 480.1 451.8;" xml:space="preserve">
<style type="text/css">
	.st0{fill:#020202;}
</style>
<g>
	<path class="st0" d="M206.8,318.9H39.2c-3.9,0-7.1-3.2-7.1-7.1V39.2c0-3.9,3.2-7.1,7.1-7.1h401.6c3.9,0,7.1,3.2,7.1,7.1v59.7
		c11.8,1.4,22.8,5.2,32.2,11.6V39.2c0-21.6-17.6-39.2-39.2-39.2H39.2C17.6,0,0,17.6,0,39.2v272.6C0,333.4,17.6,351,39.2,351h134.6
		v52.6h-21.2c-13.3,0-24.1,10.8-24.1,24.1s10.8,24.1,24.1,24.1h67.7c-8.5-11.9-13.6-26.4-13.6-42L206.8,318.9L206.8,318.9z"/>
	<path class="st0" d="M341.7,427.5v-34.7h-70.7V170.9c0-4.7,3.8-8.5,8.5-8.5h159.9c4.7,0,8.5,3.8,8.5,8.5v68.7h12
		c7.4,0,14.2,2.1,20.1,5.6v-74.3c0-22.4-18.2-40.6-40.6-40.6H279.6c-22.4,0-40.6,18.2-40.6,40.6v238.9c0,22.4,18.2,40.6,40.6,40.6
		H349C344.6,444.1,341.7,435.2,341.7,427.5z"/>
	<path class="st0" d="M460,259.6h-78c-11.1,0-20.1,9-20.1,20.1v147.7c0,11.1,9,20.1,20.1,20.1h78c11.1,0,20.1-9,20.1-20.1V279.8
		C480.1,268.7,471.1,259.6,460,259.6z M386,283.8h70v127.7h-70V283.8z M421,437.9c-2.2,0-4.2-0.9-5.7-2.3c-1.7-1.6-2.8-3.7-2.8-6.2
		c0-4.7,3.8-8.5,8.5-8.5c4.7,0,8.5,3.8,8.5,8.5c0,2.5-1.1,4.7-2.8,6.2C425.2,437,423.2,437.9,421,437.9z"/>
</g>
</svg>
