<?xml version="1.0" encoding="utf-8"?>
<!-- Generator: Adobe Illustrator 19.2.1, SVG Export Plug-In . SVG Version: 6.00 Build 0)  -->
<svg version="1.1" id="Capa_1" xmlns="http://www.w3.org/2000/svg" xmlns:xlink="http://www.w3.org/1999/xlink" x="0px" y="0px"
	 viewBox="0 0 45 58" style="enable-background:new 0 0 45 58;" xml:space="preserve">
<g>
	<path d="M44.4,12.2l-5.8-5.8l-5-5l0,0l-0.8-0.8C32.5,0.2,32,0,31.5,0h-29C1.1,0,0,1.1,0,2.5V39v16.5C0,56.9,1.1,58,2.5,58h40.1
		c1.4,0,2.5-1.1,2.5-2.5V39V13.5C45,13,44.8,12.5,44.4,12.2z M33,12V8.9V3.6l8.4,8.4h-6.7H33z M31,10.4v3.4 M43,55.5
		c0,0.3-0.2,0.5-0.5,0.5H2.5C2.2,56,2,55.8,2,55.5V41h41V55.5z M31,13.9L42.6,14c0.1,0,0.3,0,0.4-0.1V39H2V2.5C2,2.2,2.2,2,2.5,2
		h28.6C31,2.1,31,2.3,31,2.4v8.1c0,2.5,0,0.5,0,2.5"/>
	<path d="M11.9,50.4h1.2c0.5,0,1-0.1,1.4-0.2s0.8-0.4,1.1-0.7c0.3-0.3,0.6-0.6,0.7-1c0.2-0.4,0.3-0.9,0.3-1.4c0-0.5-0.1-0.9-0.3-1.3
		s-0.5-0.7-0.8-1c-0.3-0.3-0.7-0.5-1.1-0.6c-0.4-0.1-0.8-0.2-1.3-0.2h-2.9V54h1.6L11.9,50.4L11.9,50.4z M11.9,45.2h1.2
		c0.4,0,0.8,0.1,1,0.2c0.3,0.1,0.5,0.3,0.6,0.5c0.1,0.2,0.2,0.4,0.3,0.6c0,0.2,0.1,0.4,0.1,0.6c0,0.4,0,0.8-0.1,1
		c-0.1,0.3-0.2,0.5-0.4,0.6S14.2,49,14,49.1c-0.2,0.1-0.4,0.1-0.6,0.1h-1.5V45.2z"/>
	<path d="M21,52.8c-0.2,0-0.4,0-0.6-0.1s-0.4-0.1-0.6-0.1s-0.4-0.1-0.6-0.2c-0.2-0.1-0.4-0.1-0.5-0.2l-0.3,1.2
		c0.2,0.1,0.3,0.3,0.6,0.3c0.2,0.1,0.4,0.2,0.7,0.2c0.2,0.1,0.5,0.1,0.7,0.1s0.5,0,0.7,0c0.5,0,1-0.1,1.4-0.2c0.4-0.2,0.7-0.4,1-0.6
		s0.5-0.6,0.6-0.9s0.2-0.7,0.2-1.1c0-0.5-0.1-1-0.3-1.3c-0.2-0.3-0.5-0.6-0.8-0.9s-0.7-0.4-1-0.6s-0.7-0.3-1-0.5s-0.6-0.4-0.8-0.6
		c-0.2-0.2-0.3-0.5-0.3-0.9c0-0.1,0-0.3,0.1-0.5s0.2-0.3,0.3-0.4c0.1-0.1,0.3-0.2,0.4-0.3s0.3-0.1,0.5-0.2c0.3,0,0.6,0,0.8,0
		c0.2,0,0.4,0,0.5,0.1c0.1,0,0.2,0.1,0.3,0.1s0.1,0.1,0.2,0.1c0,0,0-0.1,0.1-0.1c0-0.1,0.1-0.2,0.2-0.3c0.1-0.1,0.1-0.3,0.2-0.4
		c0.1-0.1,0.1-0.3,0.2-0.4c-0.3-0.2-0.6-0.3-1-0.4c-0.4-0.1-0.9-0.1-1.3-0.1c-0.4,0-0.8,0.1-1.2,0.2s-0.7,0.3-1,0.6
		s-0.5,0.5-0.7,0.9s-0.2,0.7-0.2,1.2c0,0.5,0.1,0.9,0.3,1.2c0.2,0.3,0.5,0.6,0.8,0.9c0.3,0.2,0.7,0.5,1,0.6s0.7,0.4,1,0.5
		s0.6,0.4,0.8,0.6c0.2,0.2,0.3,0.5,0.3,0.8c0,0.5-0.1,0.9-0.4,1.2C22,52.6,21.5,52.8,21,52.8z"/>
	<path d="M30.4,54c0.3,0,0.6-0.1,0.9-0.2c0.3-0.1,0.6-0.3,1-0.5s0.6-0.5,0.9-0.9s0.5-0.9,0.7-1.5s0.3-1.3,0.3-2.1
		c0-0.6-0.1-1.2-0.3-1.8c-0.2-0.6-0.5-1.1-1-1.5s-1-0.8-1.6-1.1s-1.4-0.4-2.2-0.4h-3V54h3.8C29.9,54,30.1,54,30.4,54z M27.6,52.8
		v-7.6h1c0.8,0,1.4,0.1,1.9,0.3s0.9,0.5,1.2,0.8s0.5,0.7,0.6,1.1c0.1,0.4,0.2,0.8,0.2,1.2c0,1.3-0.2,2.4-0.7,3.1s-1.3,1.1-2.4,1.1
		C29.3,52.8,27.6,52.8,27.6,52.8z"/>
</g>
</svg>
