<svg xmlns="http://www.w3.org/2000/svg" viewBox="0 0 45 58"><path d="M44.4 12.2L43 10.8l-9.5-9.5-.8-.8C32.5.2 32 0 31.5 0h-29C1.3 0 0 .9 0 2.9V56c0 .8.8 1.7 1.8 1.9H43.3c1-.3 1.8-1.1 1.8-1.9V14c-.1-.8-.2-1.4-.7-1.8zM33 3.6l8.4 8.4H33V3.6zM2.5 56h-.2c-.2-.1-.3-.3-.3-.5V41h41v14.5c0 .2-.1.3-.3.4H2.5zM2 39V2.9c0-.2 0-.9.5-.9h28.6c-.1.1-.1.3-.1.4V14h11.6c.1 0 .3 0 .4-.1v25H2z"/><path d="M14.7 43.9L12.8 48h-.1l-1.8-4.1H9l2.7 5.2L9.2 54h1.9l1.7-3.8h.1l1.6 3.8h1.9l-2.5-4.9 2.7-5.2M23.5 50.8l-3-6.9h-1.6V54h1.6v-6.9l2.3 5.6h1.4l2.3-5.6V54h1.7V43.9h-1.7M32.4 43.9h-1.7V54H37v-1.2h-4.6"/></svg>